<svg width="26" height="21" viewBox="0 0 26 21" fill="none" xmlns="http://www.w3.org/2000/svg">
<path d="M18.3484 0.0371103C16.2324 0.0258417 14.2208 0.951887 12.8578 2.56477C11.5033 0.940863 9.4861 0.0121847 7.36714 0.0371103C3.39491 0.0371103 0.174805 3.2459 0.174805 7.20418C0.174805 13.9874 12.055 20.6105 12.5367 20.8665C12.731 20.9959 12.9845 20.9959 13.1789 20.8665C13.6605 20.6105 25.5408 14.0833 25.5408 7.20418C25.5408 3.2459 22.3206 0.0371103 18.3484 0.0371103ZM12.8578 19.5866C10.9954 18.4988 1.45916 12.7075 1.45916 7.20418C1.45916 3.95276 4.10426 1.31689 7.3672 1.31689C9.36533 1.29074 11.2353 2.29505 12.3119 3.97254C12.5306 4.27294 12.9522 4.33987 13.2537 4.12197C13.3113 4.08033 13.3619 4.02993 13.4036 3.97254C15.1893 1.25124 18.8507 0.48767 21.5816 2.26707C23.2534 3.35638 24.2597 5.21368 24.2564 7.20412C24.2564 12.7715 14.7201 18.5308 12.8578 19.5866Z" fill="#6D6D6D"/>
</svg>
